<?xml version="1.0" standalone="no"?>
<!DOCTYPE svg PUBLIC "-//W3C//DTD SVG 20010904//EN"
 "http://www.w3.org/TR/2001/REC-SVG-20010904/DTD/svg10.dtd">
<svg version="1.0" xmlns="http://www.w3.org/2000/svg"
 width="96.000000pt" height="90.000000pt" viewBox="0 0 96.000000 90.000000"
 preserveAspectRatio="xMidYMid meet">

<g transform="translate(0.000000,90.000000) scale(0.100000,-0.100000)"
fill="#000000" stroke="none">
<path d="M172 868 c3 -23 16 -28 110 -43 43 -7 59 -36 34 -64 -19 -20 -21 -57
-5 -67 16 -9 47 33 55 74 9 46 -13 66 -105 97 -92 30 -93 30 -89 3z"/>
<path d="M685 861 c-64 -21 -83 -32 -93 -55 -12 -25 -11 -32 10 -73 12 -25 28
-45 33 -45 17 2 17 49 1 75 -23 34 -3 53 68 66 62 11 86 25 86 47 0 19 -11 17
-105 -15z"/>
<path d="M200 811 c0 -13 27 -21 73 -21 24 0 37 4 31 9 -13 12 -104 23 -104
12z"/>
<path d="M693 811 c-62 -10 -64 -21 -6 -21 33 0 55 5 63 15 14 17 13 17 -57 6z"/>
<path d="M440 779 c-13 -6 -52 -37 -86 -69 l-62 -60 77 0 78 0 7 -97 c6 -89
16 -123 36 -123 4 0 11 49 15 110 l7 110 73 0 73 0 -62 59 c-53 52 -101 83
-124 80 -4 0 -18 -5 -32 -10z"/>
<path d="M220 770 c0 -5 7 -10 15 -11 49 -4 59 -2 63 9 2 8 -9 12 -37 12 -23
0 -41 -4 -41 -10z"/>
<path d="M652 768 c7 -19 50 -21 73 -4 19 14 17 15 -28 16 -35 0 -47 -4 -45
-12z"/>
<path d="M250 725 c7 -8 16 -15 21 -15 5 0 9 7 9 15 0 9 -9 15 -21 15 -18 0
-19 -2 -9 -15z"/>
<path d="M670 720 c0 -18 3 -19 20 -10 11 6 20 15 20 20 0 6 -9 10 -20 10 -13
0 -20 -7 -20 -20z"/>
<path d="M325 575 c-50 -49 -17 -114 86 -165 112 -57 159 -123 114 -160 -16
-13 -21 -50 -7 -50 5 0 20 13 35 28 20 21 27 38 27 68 0 50 -29 82 -135 150
-80 52 -94 69 -71 92 12 12 18 13 30 3 12 -10 17 -9 25 8 26 48 -60 70 -104
26z"/>
<path d="M542 588 c-24 -24 -10 -67 15 -46 11 9 17 8 29 -4 20 -20 9 -42 -37
-72 -64 -43 -46 -79 22 -45 46 23 89 73 89 103 0 38 -37 76 -74 76 -17 0 -37
-5 -44 -12z"/>
<path d="M401 354 c-26 -33 -27 -91 -3 -120 9 -12 45 -40 79 -63 64 -42 79
-65 68 -104 -6 -21 -6 -21 9 -3 35 44 22 69 -88 159 -49 41 -57 68 -31 103 36
48 3 75 -34 28z"/>
<path d="M460 300 c0 -59 3 -71 20 -80 19 -10 20 -8 20 57 0 57 -3 70 -20 81
-19 12 -20 10 -20 -58z"/>
<path d="M401 154 c-25 -31 -26 -53 -6 -80 14 -18 14 -17 15 12 0 31 33 85 44
73 3 -3 9 -40 12 -82 4 -42 10 -77 15 -77 8 0 17 138 9 150 -7 9 -46 30 -59
30 -5 0 -19 -12 -30 -26z"/>
</g>
</svg>
